<?xml version="1.0" standalone="no"?>
<!DOCTYPE svg PUBLIC "-//W3C//DTD SVG 20010904//EN"
 "http://www.w3.org/TR/2001/REC-SVG-20010904/DTD/svg10.dtd">
<svg version="1.0" xmlns="http://www.w3.org/2000/svg"
 width="686.000000pt" height="686.000000pt" viewBox="0 0 686.000000 686.000000"
 preserveAspectRatio="xMidYMid meet">
<metadata>
Created by potrace 1.14, written by Peter Selinger 2001-2017
</metadata>
<g transform="translate(0.000000,686.000000) scale(0.100000,-0.100000)"
fill="#000000" stroke="none">
<path d="M3430 6761 c-8 -4 -40 -13 -71 -20 -60 -13 -78 -33 -85 -96 -2 -16
-6 -41 -9 -55 -2 -13 -7 -42 -11 -65 -7 -47 -12 -70 -14 -70 -1 0 -3 -11 -5
-25 -6 -56 -17 -125 -25 -169 -6 -25 -12 -67 -15 -93 -2 -25 -7 -59 -9 -75 -3
-15 -8 -48 -11 -73 -3 -25 -8 -65 -11 -89 -18 -135 -18 -376 0 -471 2 -14 7
-52 10 -85 3 -33 11 -87 16 -120 6 -33 15 -85 20 -115 6 -30 14 -70 19 -88 5
-18 9 -33 9 -35 -3 -9 35 -116 46 -130 30 -38 70 18 139 193 49 122 135 400
152 485 15 77 26 144 31 190 6 53 6 765 0 851 -5 66 -24 104 -61 124 -16 8
-33 18 -36 23 -8 11 -62 16 -79 8z"/>
<path d="M5715 5813 c-83 -14 -147 -46 -225 -111 -72 -60 -440 -428 -440 -440
0 -5 -11 -22 -25 -38 -14 -16 -25 -34 -25 -41 0 -6 -4 -13 -8 -15 -21 -8 -202
-352 -202 -383 0 -8 -4 -15 -8 -15 -4 0 -13 -17 -19 -37 -6 -21 -23 -75 -36
-120 -26 -84 -26 -123 0 -123 34 0 225 110 408 234 50 33 95 65 102 71 6 5 33
28 60 49 26 22 73 69 103 104 30 35 60 69 65 75 6 7 26 34 45 62 19 27 39 54
43 60 42 54 97 137 97 145 0 5 3 10 8 10 4 0 16 16 26 35 11 19 23 35 28 35 4
0 8 4 8 9 0 5 19 37 41 71 64 95 105 198 108 269 l2 60 -44 19 c-42 19 -69 22
-112 15z"/>
<path d="M1156 5743 c-27 -7 -54 -17 -59 -22 -19 -19 -8 -89 24 -148 40 -75
92 -157 101 -161 5 -2 8 -8 8 -13 0 -6 5 -15 10 -22 6 -7 38 -50 73 -97 139
-190 288 -353 465 -508 29 -26 71 -63 92 -82 135 -123 197 -180 237 -218 74
-69 83 -51 45 93 -66 246 -256 586 -451 804 -153 172 -315 322 -388 360 -55
28 -91 31 -157 14z"/>
<path d="M3056 4293 c-3 -3 -16 -7 -28 -8 -27 -2 -51 -11 -97 -33 -19 -9 -37
-17 -40 -17 -7 0 -80 -54 -101 -75 -29 -30 -91 -110 -85 -110 4 0 -2 -15 -13
-32 -10 -18 -25 -52 -32 -75 -7 -24 -18 -43 -24 -44 -6 0 -27 -2 -46 -4 -19
-2 -64 -6 -99 -9 -107 -9 -134 -44 -91 -123 24 -45 73 -89 118 -105 17 -7 32
-15 32 -18 0 -3 14 -7 32 -8 18 -2 35 -6 38 -10 3 -4 18 -8 34 -9 28 -2 61
-22 52 -31 -3 -2 7 -20 21 -39 l26 -34 -22 -16 c-38 -26 -121 -115 -121 -130
0 -7 -4 -13 -10 -13 -5 0 -12 -11 -16 -25 -3 -14 -11 -25 -17 -25 -6 0 -7 -3
-4 -7 4 -3 3 -11 -2 -17 -6 -6 -18 -44 -29 -83 -21 -77 -22 -196 -3 -268 5
-22 10 -41 10 -43 1 -1 8 -19 17 -40 10 -20 16 -40 16 -44 -1 -5 3 -8 8 -8 6
0 10 -6 10 -12 0 -27 94 -129 160 -175 55 -38 130 -74 159 -76 11 -1 21 -4 21
-7 0 -7 45 -12 123 -14 31 0 57 -5 57 -11 0 -7 3 -7 8 0 9 13 145 14 154 0 5
-7 8 -7 8 0 0 12 109 13 128 1 7 -4 12 -3 12 3 0 10 18 10 37 -2 6 -4 14 -3
17 1 4 8 50 9 66 2 3 -1 10 -1 15 0 27 7 72 6 88 -2 9 -5 17 -5 17 -1 0 5 30
9 68 9 59 1 99 6 152 17 8 1 21 6 28 10 6 5 12 6 12 2 0 -3 15 1 34 9 19 8 37
12 40 8 3 -3 6 0 6 6 0 7 3 11 8 10 12 -3 94 42 152 85 79 59 142 128 186 203
15 27 33 52 39 56 5 4 6 8 1 8 -4 0 -1 11 7 24 14 20 45 111 54 156 12 61 22
181 15 193 -2 5 -6 32 -8 60 -5 67 -9 85 -17 93 -4 4 -7 18 -7 31 0 13 -4 31
-9 41 -5 9 -17 37 -27 62 -22 54 -88 154 -125 190 -72 69 -109 100 -119 100
-5 0 -10 3 -10 8 0 4 -8 12 -19 17 -10 6 -36 20 -57 32 l-39 21 1 -66 c1 -36
-3 -77 -8 -91 -17 -42 -33 -76 -38 -81 -3 -3 -21 -23 -41 -45 -20 -22 -42 -41
-50 -43 -8 -2 -22 -11 -31 -19 -10 -9 -18 -12 -18 -7 0 5 -4 4 -8 -2 -11 -17
-131 -41 -187 -37 -81 5 -90 8 -87 29 2 11 5 24 5 29 1 6 5 13 10 16 18 13 33
112 30 195 -4 107 -5 124 -13 124 -4 0 -7 6 -7 13 0 27 -56 125 -96 167 -45
48 -127 116 -127 105 0 -3 -7 1 -16 9 -8 9 -20 14 -25 11 -5 -4 -9 -2 -9 2 0
21 -235 54 -254 36z m33 -286 c13 -6 27 -21 31 -32 10 -27 -14 -85 -35 -86 -8
-1 -23 -2 -33 -2 -10 -1 -31 9 -46 21 -16 12 -24 22 -19 22 6 0 8 11 6 24 -3
16 3 30 18 45 26 24 44 26 78 8z"/>
<path d="M5677 3744 c-1 -1 -29 -5 -62 -9 -104 -11 -119 -12 -165 -19 -89 -14
-233 -39 -290 -51 -14 -3 -34 -7 -45 -9 -201 -39 -478 -136 -518 -180 -18 -20
-18 -21 2 -37 16 -13 140 -49 291 -84 116 -27 198 -48 210 -53 8 -3 20 -6 25
-7 11 -1 84 -17 100 -21 23 -6 110 -26 220 -50 180 -38 330 -52 450 -39 33 3
78 8 100 10 58 5 174 24 215 35 19 5 52 11 74 14 21 4 42 9 47 12 5 3 23 7 41
9 76 8 137 35 182 81 25 25 46 53 46 62 0 9 7 26 15 36 21 28 19 95 -5 133
-19 32 -91 76 -155 95 -44 13 -172 36 -235 43 -30 3 -75 8 -100 10 -133 14
-187 17 -308 19 -73 1 -133 1 -135 0z"/>
<path d="M917 3654 c-2 -3 -113 -9 -352 -19 -159 -8 -213 -14 -275 -31 -60
-18 -79 -36 -80 -77 0 -26 36 -125 50 -137 3 -3 18 -24 33 -48 15 -23 39 -48
52 -54 14 -6 25 -15 25 -19 0 -9 95 -46 153 -59 133 -29 191 -34 362 -33 160
1 206 4 236 17 9 4 20 6 25 5 5 -1 16 0 24 3 23 9 192 51 215 54 11 1 39 9 63
18 23 8 43 15 45 14 7 -3 341 109 393 132 121 55 91 77 -186 140 -47 10 -101
22 -120 25 -19 3 -42 8 -50 10 -8 2 -35 7 -60 10 -25 3 -52 8 -60 10 -8 2 -37
6 -65 10 -27 3 -66 8 -85 10 -99 13 -336 26 -343 19z"/>
<path d="M4745 2360 c-7 -12 8 -41 161 -317 68 -123 124 -226 124 -230 0 -3 6
-14 14 -22 7 -9 31 -50 53 -91 46 -86 60 -111 151 -270 36 -63 86 -143 109
-177 24 -35 41 -63 36 -63 -4 0 0 -6 9 -12 8 -7 41 -46 72 -86 32 -40 87 -97
124 -127 75 -62 108 -69 147 -31 28 28 89 143 90 171 1 11 12 43 24 70 19 39
24 68 25 136 1 83 0 89 -47 182 -26 53 -53 102 -60 109 -6 7 -19 26 -27 42
-24 48 -295 311 -334 325 -6 2 -15 9 -21 16 -17 19 -96 78 -180 136 -44 30
-82 56 -85 59 -5 6 -49 32 -145 88 -79 45 -199 102 -216 102 -10 0 -21 -4 -24
-10z"/>
<path d="M2190 2270 c-8 -4 -55 -22 -105 -40 -88 -32 -241 -106 -360 -175 -33
-19 -79 -45 -102 -57 -24 -12 -43 -26 -43 -30 0 -4 -6 -8 -13 -8 -8 0 -22 -9
-32 -20 -10 -11 -22 -20 -27 -20 -20 0 -156 -110 -203 -164 -27 -32 -55 -63
-61 -69 -77 -85 -202 -271 -210 -312 -6 -34 28 -160 45 -167 5 -2 22 -30 39
-63 18 -33 37 -67 44 -75 31 -36 118 -100 136 -100 27 0 127 54 180 97 71 58
230 221 264 272 18 25 36 51 41 56 45 54 311 515 338 588 6 15 15 27 19 27 4
0 11 12 15 27 3 15 10 30 13 33 12 9 92 170 92 185 0 8 -6 15 -12 16 -7 0 -20
2 -28 3 -8 2 -22 0 -30 -4z"/>
<path d="M3448 2155 c-16 -13 -28 -27 -28 -30 0 -4 -8 -19 -19 -33 -10 -15
-31 -56 -45 -92 -15 -36 -31 -74 -36 -85 -10 -21 -71 -201 -74 -219 -2 -6 -12
-42 -24 -81 -31 -103 -72 -258 -79 -302 -6 -42 -11 -513 -5 -526 2 -5 6 -41 8
-80 8 -155 27 -238 75 -332 103 -204 117 -225 189 -279 73 -56 92 -66 116 -61
10 2 22 4 25 4 31 4 126 164 149 251 7 25 15 47 19 50 10 7 48 153 56 215 3
28 8 64 10 80 23 155 38 636 23 735 -22 138 -146 527 -214 665 -68 141 -96
164 -146 120z"/>
</g>
</svg>
